PathFileType	4	(x/y/z)	S04_PSF_T02.trc
DataRate	CameraRate	NumFrames	NumMarkers	Units	OrigDataRate	OrigDataStartFrame	OrigNumFrames
240	240	4	51	mm	240	1	430
Frame#	Time	Sternum			R.Acromium			L.Acromium			Top.Head			R.ASIS			L.ASIS			R.PSIS			L.PSIS			R.Great.Tro			L.Great.Tro			R.Iliac.Crest			L.Iliac.Crest			V.Sacral			R.Thigh.Upper.Post			R.Thigh.Lower.Ant			R.Thigh.Lower.Post			R.Thigh.Upper.Ant			R.Knee.Lat			R.Knee.Med			R.Shank.Upper.Post			R.Shank.Lower.Ant			R.Shank.Lower.Post			R.Shank.Upper.Ant			R.Ankle.Lat			R.Ankle.Med			R.Heel.Upper			R.Heel.Med			R.Heel.Lat			R.Toe.Lat			R.Toe.Med			R.Toe.Tip			L.Thigh.Upper.Post			L.Thigh.Lower.Ant			L.Thigh.Lower.Post			L.Thigh.Upper.Ant			L.Knee.Lat			L.Knee.Med			L.Shank.Upper.Post			L.Shank.Lower.Ant			L.Shank.Lower.Post			L.Shank.Upper.Ant			L.Ankle.Lat			L.Ankle.Med			L.Heel.Upper			L.Heel.Med			L.Heel.Lat			L.Toe.Lat			L.Toe.Med			L.Toe.Tip			Cervical.Spine			Back			
		X1	Y1	Z1	X2	Y2	Z2	X3	Y3	Z3	X4	Y4	Z4	X5	Y5	Z5	X6	Y6	Z6	X7	Y7	Z7	X8	Y8	Z8	X9	Y9	Z9	X10	Y10	Z10	X11	Y11	Z11	X12	Y12	Z12	X13	Y13	Z13	X14	Y14	Z14	X15	Y15	Z15	X16	Y16	Z16	X17	Y17	Z17	X18	Y18	Z18	X19	Y19	Z19	X20	Y20	Z20	X21	Y21	Z21	X22	Y22	Z22	X23	Y23	Z23	X24	Y24	Z24	X25	Y25	Z25	X26	Y26	Z26	X27	Y27	Z27	X28	Y28	Z28	X29	Y29	Z29	X30	Y30	Z30	X31	Y31	Z31	X32	Y32	Z32	X33	Y33	Z33	X34	Y34	Z34	X35	Y35	Z35	X36	Y36	Z36	X37	Y37	Z37	X38	Y38	Z38	X39	Y39	Z39	X40	Y40	Z40	X41	Y41	Z41	X42	Y42	Z42	X43	Y43	Z43	X44	Y44	Z44	X45	Y45	Z45	X46	Y46	Z46	X47	Y47	Z47	X48	Y48	Z48	X49	Y49	Z49	X50	Y50	Z50	X51	Y51	Z51	

1	0	NaN	NaN	NaN	-1708.4	1487.1	451.1	-1732	1476.1	102.75	-1671.9	1813.8	260.73	NaN	NaN	NaN	NaN	NaN	NaN	NaN	NaN	NaN	NaN	NaN	NaN	-1745	902.07	467.23	-1710.2	905.53	87.414	-1722.4	1069.2	449.74	-1713.9	1073.9	112.09	-1851	975.6	253.4	-1809.5	659.92	444.51	-1749.8	560.98	404.78	-1835.3	573.82	426.99	NaN	NaN	NaN	-1831.3	496.17	413.78	-1857.8	507.11	286.06	-1972.6	304.59	397.51	-1928.5	213.18	352.51	-1992.9	240.37	378.74	NaN	NaN	NaN	NaN	NaN	NaN	NaN	NaN	NaN	-2087.4	107.47	299.06	-2082.6	73.235	271.2	-2086.9	76.758	334.92	NaN	NaN	NaN	-1884.7	41.956	261.86	-1815.1	52.264	305.45	-1648.6	668.69	94.687	-1536.6	609.7	95.729	-1606.1	590.28	108.85	-1596	689.51	75.571	-1532.4	522.09	111.21	-1516.7	511.46	237.42	-1522.8	323.87	113.01	NaN	NaN	NaN	-1480.7	259.41	118.2	-1472	347.33	96.632	-1358.4	132.1	123.88	-1355.5	147.39	215.66	-1410.2	69.5	171.56	-1389	53.318	205.75	-1384.3	45.298	145.55	-1224.4	134.31	106.34	-1205.7	162.95	218.08	-1164.1	202.04	168.97	-1765.3	1536.8	284.05	-1852.7	1280.5	268.62
2	0.0041667	NaN	NaN	NaN	-1702.9	1486.4	450.59	-1726.6	1475.2	102.23	-1666.5	1813.1	260.18	NaN	NaN	NaN	NaN	NaN	NaN	NaN	NaN	NaN	NaN	NaN	NaN	-1739.7	901.47	466.84	-1704.4	904.92	86.999	-1717.1	1068.6	449.35	-1708.5	1073.1	111.74	-1845.4	974.9	252.82	-1804.8	659.53	444.2	-1745.5	560.41	404.78	-1830.7	573.48	426.76	NaN	NaN	NaN	-1828.2	496.29	413.84	-1853.4	506.74	285.91	-1970	305.32	397.54	-1926.6	213.63	352.51	-1990.9	241.29	378.78	NaN	NaN	NaN	NaN	NaN	NaN	NaN	NaN	NaN	-2086.6	109.19	299.26	-2082.1	75.036	271.26	-2086.4	78.429	335.04	NaN	NaN	NaN	-1884.6	42.036	261.9	-1815	51.992	305.31	-1642.5	668.19	94.425	-1530.4	609.4	96.058	-1600.2	589.91	108.68	-1590	689.17	75.659	-1526.2	521.54	111.35	-1510.9	511.05	237.4	-1517.9	323.29	113.02	NaN	NaN	NaN	-1476.1	258.56	118.34	-1465.8	346.27	97.294	-1354.5	130.66	124.24	-1351.6	146.02	216	-1405.7	67.917	172.04	-1384.8	51.723	206.24	-1380.8	44.045	145.88	-1220.5	132.63	106.76	-1201.8	161.28	218.48	-1160.1	200.3	169.45	-1760	1536	283.57	-1847.3	1279.7	268.25
3	0.0083333	NaN	NaN	NaN	-1697.2	1485.6	450.06	-1721	1474.3	101.68	-1660.9	1812.3	259.61	NaN	NaN	NaN	NaN	NaN	NaN	NaN	NaN	NaN	NaN	NaN	NaN	-1734.3	900.84	466.42	-1698.2	904.3	86.567	-1711.6	1068	448.94	-1702.8	1072.3	111.38	-1839.6	974.18	252.21	-1799.8	659.12	443.87	-1740.8	559.82	404.77	-1825.9	573.11	426.52	NaN	NaN	NaN	-1824.8	496.37	413.88	-1848.7	506.34	285.75	-1967.3	306.1	397.57	-1924.6	214.12	352.51	-1988.7	242.26	378.82	NaN	NaN	NaN	NaN	NaN	NaN	NaN	NaN	NaN	-2085.7	111.02	299.46	-2081.7	76.954	271.32	-2085.8	80.204	335.15	-1916.9	46.729	381.22	-1884.5	42.12	261.95	-1814.7	51.778	305.13	-1636.1	667.69	94.157	-1523.9	609.1	96.406	-1594	589.52	108.51	-1583.6	688.81	75.771	-1519.7	520.96	111.51	-1504.9	510.62	237.38	-1512.8	322.69	113.04	NaN	NaN	NaN	-1471.2	257.67	118.48	-1459.5	345.17	97.955	-1350.4	129.14	124.62	-1347.7	144.56	216.36	-1401.3	66.336	172.52	-1380.6	50.112	206.72	-1377.2	42.771	146.2	-1216.6	130.8	107.22	-1197.9	159.43	218.93	-1156.1	198.36	169.99	-1754.5	1535.3	283.06	-1841.7	1278.9	267.86
4	0.0125	NaN	NaN	NaN	-1691.3	1484.9	449.5	-1715.2	1473.3	101.1	-1655.1	1811.6	259.03	NaN	NaN	NaN	NaN	NaN	NaN	NaN	NaN	NaN	NaN	NaN	NaN	-1728.6	900.19	465.99	-1691.9	903.68	86.12	-1705.9	1067.3	448.52	-1696.8	1071.5	110.99	-1833.5	973.45	251.58	-1794.6	658.69	443.53	-1736	559.2	404.75	-1820.9	572.72	426.27	NaN	NaN	NaN	-1821.2	496.4	413.9	-1843.8	505.91	285.57	-1964.4	306.92	397.6	-1922.5	214.63	352.51	-1986.5	243.28	378.85	NaN	NaN	NaN	NaN	NaN	NaN	NaN	NaN	NaN	-2084.8	112.96	299.68	-2081.2	78.985	271.37	-2085.2	82.081	335.26	-1916.7	46.92	381.32	-1884.4	42.206	262	-1814.4	51.635	304.89	-1629.4	667.18	93.886	-1517.2	608.8	96.769	-1587.6	589.14	108.35	-1577	688.43	75.91	-1513	520.38	111.68	-1498.6	510.18	237.35	-1507.6	322.08	113.07	NaN	NaN	NaN	-1466.3	256.76	118.63	-1453	344.04	98.608	-1346.4	127.56	125.01	-1343.7	143.01	216.75	-1397	64.784	172.99	-1376.5	48.506	207.19	-1373.8	41.49	146.53	-1212.7	128.82	107.72	-1193.9	157.38	219.43	-1152	196.21	170.59	-1748.8	1534.5	282.53	-1835.8	1278.1	267.45
